<svg width="1026" height="1024" viewBox="0 0 1026 1024" fill="none" xmlns="http://www.w3.org/2000/svg">
<g clip-path="url(#clip0_18_28)">
<rect x="0.657715" y="0.458984" width="1025" height="1024" fill="#FF1E00"/>
<path d="M953.437 637.872C950.356 649.427 948.815 660.597 948.815 671.382C948.815 702.195 964.607 717.601 996.19 717.601C1010.06 717.601 1022.38 715.29 1033.17 710.668C1030.08 749.184 1016.22 778.842 991.568 799.641C967.688 819.669 939.186 829.684 906.062 829.684C875.249 829.684 849.058 821.98 827.489 806.573C806.69 790.396 792.824 766.131 785.891 733.777C739.672 797.714 684.979 829.684 621.812 829.684C577.904 829.684 541.313 814.662 512.041 784.619C499.121 771.359 489.054 754.797 481.836 734.935C460.995 746.459 438.89 755.246 415.519 761.29L398.187 844.485C382.781 919.207 356.204 970.433 318.458 998.165C280.713 1026.67 237.96 1040.92 190.2 1040.92C153.224 1040.92 122.412 1031.29 97.7612 1012.03C73.111 992.773 60.7858 965.041 60.7856 928.836C60.7856 884.928 78.5032 849.493 113.938 822.531C149.373 796.34 194.436 774.385 249.129 756.668L262.996 695.428C223.709 737.795 177.49 758.979 124.337 758.979C80.429 758.979 43.8382 743.958 14.5659 713.915C-14.7063 683.872 -29.3422 636.883 -29.3423 572.946C-29.3423 515.942 -18.1728 456.242 4.1665 393.846C27.2762 330.679 61.1705 277.527 105.849 234.389C151.298 190.48 205.221 168.525 267.618 168.525C299.201 168.525 322.696 173.918 338.102 184.702C353.508 195.487 361.211 209.739 361.211 227.456V234.389L373.922 174.304H540.312L425.918 710.449C442.449 704.939 457.516 698.195 471.122 690.221C469.13 675.85 468.132 660.326 468.132 643.649C468.132 586.646 479.302 526.946 501.641 464.55C524.751 401.383 558.646 348.231 603.325 305.093C648.774 261.185 702.696 239.23 765.092 239.23C796.675 239.23 820.17 244.623 835.577 255.407C850.983 266.192 858.687 280.443 858.687 298.16V302.782L931.083 -12.4316L1102.1 -35.541L953.437 637.872ZM237.575 814.442C162.083 842.174 124.337 874.913 124.337 912.659C124.338 922.673 127.804 931.532 134.737 939.235C141.67 946.938 151.299 950.79 163.624 950.79C176.719 950.79 189.429 941.931 201.754 924.214C214.08 906.497 223.709 881.076 230.642 847.952L237.575 814.442ZM800.913 310.87C770.1 310.87 742.368 328.973 717.717 365.179C693.067 400.614 673.809 443.751 659.943 494.592C646.077 544.663 639.144 588.957 639.144 627.473C639.144 665.989 644.536 690.639 655.321 701.424C666.876 712.208 680.742 717.601 696.918 717.601C713.866 717.601 730.813 710.283 747.76 695.646C765.477 681.01 778.573 660.597 787.046 634.406L791.668 615.918L848.288 351.312C841.355 324.351 825.563 310.87 800.913 310.87ZM303.437 240.166C272.624 240.166 244.893 258.269 220.243 294.474C195.592 329.909 176.334 373.047 162.468 423.889C148.603 473.959 141.669 518.253 141.669 556.77C141.669 595.285 147.062 619.936 157.846 630.721C169.401 641.505 183.267 646.897 199.444 646.897C217.161 646.897 235.264 638.808 253.751 622.632C272.239 606.455 284.949 584.501 291.882 556.77L350.812 282.919C350.812 273.675 346.96 264.431 339.257 255.188C331.554 245.173 319.614 240.166 303.437 240.166Z" fill="white"/>
</g>
<defs>
<clipPath id="clip0_18_28">
<rect width="1026" height="1024" fill="white"/>
</clipPath>
</defs>
</svg>
