<svg width="1024" height="1024" viewBox="0 0 1024 1024" fill="none" xmlns="http://www.w3.org/2000/svg">
<g clip-path="url(#clip0_18_2)">
<path d="M548.939 660.803C554.997 679.235 563.849 694.429 575.499 706.386C599.768 731.294 630.105 743.748 666.509 743.748C718.879 743.748 764.225 717.244 802.545 664.234C808.293 691.058 819.789 711.176 837.033 724.588C854.916 737.361 876.63 743.748 902.177 743.748C929.639 743.748 953.27 735.445 973.068 718.84C978.833 713.976 983.885 708.528 988.227 702.496C912.496 890.947 728.036 1024 512.5 1024C430.736 1024 353.443 1004.85 284.862 970.797C305.202 964.99 324.217 955.41 341.904 942.054C373.199 919.062 395.233 876.59 408.006 814.64L422.376 745.664C459.419 736.084 492.629 718.201 522.008 692.016C531.637 683.224 540.614 672.819 548.939 660.803ZM269.096 817.514C263.348 844.976 255.365 866.053 245.146 880.742C234.928 895.431 224.389 902.776 213.532 902.776C203.314 902.776 195.33 899.583 189.582 893.196C183.834 886.81 180.96 879.465 180.96 871.162C180.96 839.868 212.255 812.724 274.844 789.732L269.096 817.514ZM512.5 -1C663.242 -1 798.782 64.0817 892.559 167.678L862.898 306.9V303.068C862.898 288.379 856.512 276.563 843.738 267.622C830.965 258.681 811.486 254.21 785.301 254.21C733.569 254.21 688.862 272.412 651.181 308.816C614.138 344.582 586.037 388.649 566.877 441.02C548.356 492.751 539.095 542.248 539.095 589.51C539.095 593.218 539.157 596.857 539.275 600.428C529.165 624.262 517.662 643.296 504.764 657.528C486.242 677.965 461.654 693.293 430.998 703.512L525.84 259H387.888L377.35 308.816V303.068C377.35 288.379 370.964 276.563 358.19 267.622C345.417 258.681 325.937 254.21 299.752 254.21C248.02 254.21 203.313 272.412 165.632 308.816C128.589 344.582 100.488 388.649 81.3281 441.02C62.8068 492.751 53.5459 542.248 53.5459 589.51C53.5459 642.519 65.6809 681.478 89.9502 706.386C114.22 731.294 144.556 743.748 180.96 743.748C225.028 743.748 263.348 726.184 295.92 691.058L284.424 741.832C239.079 756.521 201.717 774.724 172.338 796.438C151.448 812.333 137.987 831.78 131.951 854.779C49.9361 763.918 0 643.541 0 511.5C0 228.454 229.454 -1 512.5 -1ZM329.45 313.605C342.862 313.606 352.762 317.757 359.148 326.06C365.535 333.723 368.728 341.388 368.729 349.052L319.87 576.098C314.122 599.09 303.584 617.292 288.256 630.704C272.928 644.116 257.92 650.822 243.23 650.822C229.819 650.822 218.322 646.351 208.742 637.41C199.801 628.469 195.33 608.031 195.33 576.098C195.33 544.164 201.078 507.441 212.574 465.928C224.07 423.776 240.036 388.01 260.474 358.632C280.911 328.615 303.904 313.605 329.45 313.605ZM814.999 313.605C835.436 313.606 848.528 324.783 854.276 347.136L807.335 566.518L803.503 581.846C796.478 603.56 785.62 620.485 770.931 632.62C756.88 644.755 742.829 650.822 728.778 650.822C715.367 650.822 703.871 646.351 694.291 637.41C685.35 628.469 680.879 608.031 680.879 576.098C680.879 544.164 686.627 507.441 698.123 465.928C709.619 423.776 725.585 388.01 746.022 358.632C766.46 328.615 789.452 313.605 814.999 313.605ZM994.325 336.455C1014.17 391.074 1025 450.022 1025 511.5C1025 557.732 1018.88 602.534 1007.4 645.14C998.495 648.927 988.329 650.822 976.9 650.822C950.715 650.822 937.623 638.048 937.623 612.502C937.623 603.561 938.9 594.3 941.455 584.72L994.325 336.455Z" fill="black"/>
</g>
<defs>
<clipPath id="clip0_18_2">
<rect width="1024" height="1024" fill="white"/>
</clipPath>
</defs>
</svg>
